<svg xmlns="http://www.w3.org/2000/svg" viewBox="0 0 240 240" fill="none"><rect x="8" y="8" width="224" height="224" rx="3" transform="rotate(0 120 120)" stroke="#E0792F" stroke-width="0.6" opacity="0.85"></rect><rect x="12.700000000000003" y="12.700000000000003" width="214.6" height="214.6" rx="3" transform="rotate(4 120 120)" stroke="#E0792F" stroke-width="0.6" opacity="0.85"></rect><rect x="17.400000000000006" y="17.400000000000006" width="205.2" height="205.2" rx="3" transform="rotate(8 120 120)" stroke="#E0792F" stroke-width="0.6" opacity="0.85"></rect><rect x="22.099999999999994" y="22.099999999999994" width="195.8" height="195.8" rx="3" transform="rotate(12 120 120)" stroke="#E0792F" stroke-width="0.6" opacity="0.85"></rect><rect x="26.799999999999997" y="26.799999999999997" width="186.4" height="186.4" rx="3" transform="rotate(16 120 120)" stroke="#E0792F" stroke-width="0.6" opacity="0.85"></rect><rect x="31.5" y="31.5" width="177" height="177" rx="3" transform="rotate(20 120 120)" stroke="#E0792F" stroke-width="0.6" opacity="0.85"></rect><rect x="36.2" y="36.2" width="167.6" height="167.6" rx="3" transform="rotate(24 120 120)" stroke="#E0792F" stroke-width="0.6" opacity="0.85"></rect><rect x="40.900000000000006" y="40.900000000000006" width="158.2" height="158.2" rx="3" transform="rotate(28 120 120)" stroke="#E0792F" stroke-width="0.6" opacity="0.85"></rect><rect x="45.599999999999994" y="45.599999999999994" width="148.8" height="148.8" rx="3" transform="rotate(32 120 120)" stroke="#E0792F" stroke-width="0.6" opacity="0.85"></rect><rect x="50.30000000000001" y="50.30000000000001" width="139.39999999999998" height="139.39999999999998" rx="3" transform="rotate(36 120 120)" stroke="#E0792F" stroke-width="0.6" opacity="0.85"></rect><rect x="55" y="55" width="130" height="130" rx="3" transform="rotate(40 120 120)" stroke="#E0792F" stroke-width="0.6" opacity="0.85"></rect><rect x="59.7" y="59.7" width="120.6" height="120.6" rx="3" transform="rotate(44 120 120)" stroke="#E0792F" stroke-width="0.6" opacity="0.85"></rect><rect x="64.4" y="64.4" width="111.19999999999999" height="111.19999999999999" rx="3" transform="rotate(48 120 120)" stroke="#E0792F" stroke-width="0.6" opacity="0.85"></rect><rect x="69.1" y="69.1" width="101.8" height="101.8" rx="3" transform="rotate(52 120 120)" stroke="#E0792F" stroke-width="0.6" opacity="0.85"></rect><rect x="73.8" y="73.8" width="92.4" height="92.4" rx="3" transform="rotate(56 120 120)" stroke="#E0792F" stroke-width="0.6" opacity="0.85"></rect><rect x="78.5" y="78.5" width="83" height="83" rx="3" transform="rotate(60 120 120)" stroke="#E0792F" stroke-width="0.6" opacity="0.85"></rect><rect x="83.2" y="83.2" width="73.6" height="73.6" rx="3" transform="rotate(64 120 120)" stroke="#E0792F" stroke-width="0.6" opacity="0.85"></rect><rect x="87.9" y="87.9" width="64.19999999999999" height="64.19999999999999" rx="3" transform="rotate(68 120 120)" stroke="#E0792F" stroke-width="0.6" opacity="0.85"></rect><rect x="92.60000000000001" y="92.60000000000001" width="54.79999999999998" height="54.79999999999998" rx="3" transform="rotate(72 120 120)" stroke="#E0792F" stroke-width="0.6" opacity="0.85"></rect><rect x="97.3" y="97.3" width="45.400000000000006" height="45.400000000000006" rx="3" transform="rotate(76 120 120)" stroke="#E0792F" stroke-width="0.6" opacity="0.85"></rect><rect x="102" y="102" width="36" height="36" rx="3" transform="rotate(80 120 120)" stroke="#E0792F" stroke-width="0.6" opacity="0.85"></rect><rect x="106.7" y="106.7" width="26.599999999999994" height="26.599999999999994" rx="3" transform="rotate(84 120 120)" stroke="#E0792F" stroke-width="0.6" opacity="0.85"></rect></svg>