<svg xmlns="http://www.w3.org/2000/svg" viewBox="0 0 240 240" fill="none"><ellipse cx="120" cy="46" rx="74" ry="22" stroke="#E0792F" stroke-width="0.6" opacity="0.85"></ellipse><ellipse cx="120" cy="51.6" rx="74" ry="22" stroke="#E0792F" stroke-width="0.6" opacity="0.85"></ellipse><ellipse cx="120" cy="57.2" rx="74" ry="22" stroke="#E0792F" stroke-width="0.6" opacity="0.85"></ellipse><ellipse cx="120" cy="62.8" rx="74" ry="22" stroke="#E0792F" stroke-width="0.6" opacity="0.85"></ellipse><ellipse cx="120" cy="68.4" rx="74" ry="22" stroke="#E0792F" stroke-width="0.6" opacity="0.85"></ellipse><ellipse cx="120" cy="74" rx="74" ry="22" stroke="#E0792F" stroke-width="0.6" opacity="0.85"></ellipse><ellipse cx="120" cy="79.6" rx="74" ry="22" stroke="#E0792F" stroke-width="0.6" opacity="0.85"></ellipse><ellipse cx="120" cy="85.19999999999999" rx="74" ry="22" stroke="#E0792F" stroke-width="0.6" opacity="0.85"></ellipse><ellipse cx="120" cy="90.8" rx="74" ry="22" stroke="#E0792F" stroke-width="0.6" opacity="0.85"></ellipse><ellipse cx="120" cy="96.4" rx="74" ry="22" stroke="#E0792F" stroke-width="0.6" opacity="0.85"></ellipse><ellipse cx="120" cy="102" rx="74" ry="22" stroke="#E0792F" stroke-width="0.6" opacity="0.85"></ellipse><ellipse cx="120" cy="107.6" rx="74" ry="22" stroke="#E0792F" stroke-width="0.6" opacity="0.85"></ellipse><ellipse cx="120" cy="113.19999999999999" rx="74" ry="22" stroke="#E0792F" stroke-width="0.6" opacity="0.85"></ellipse><ellipse cx="120" cy="118.8" rx="74" ry="22" stroke="#E0792F" stroke-width="0.6" opacity="0.85"></ellipse><ellipse cx="120" cy="124.39999999999999" rx="74" ry="22" stroke="#E0792F" stroke-width="0.6" opacity="0.85"></ellipse><ellipse cx="120" cy="130" rx="74" ry="22" stroke="#E0792F" stroke-width="0.6" opacity="0.85"></ellipse><ellipse cx="120" cy="135.6" rx="74" ry="22" stroke="#E0792F" stroke-width="0.6" opacity="0.85"></ellipse><ellipse cx="120" cy="141.2" rx="74" ry="22" stroke="#E0792F" stroke-width="0.6" opacity="0.85"></ellipse><ellipse cx="120" cy="146.8" rx="74" ry="22" stroke="#E0792F" stroke-width="0.6" opacity="0.85"></ellipse><ellipse cx="120" cy="152.39999999999998" rx="74" ry="22" stroke="#E0792F" stroke-width="0.6" opacity="0.85"></ellipse><ellipse cx="120" cy="158" rx="74" ry="22" stroke="#E0792F" stroke-width="0.6" opacity="0.85"></ellipse><ellipse cx="120" cy="163.6" rx="74" ry="22" stroke="#E0792F" stroke-width="0.6" opacity="0.85"></ellipse><ellipse cx="120" cy="169.2" rx="74" ry="22" stroke="#E0792F" stroke-width="0.6" opacity="0.85"></ellipse><ellipse cx="120" cy="174.79999999999998" rx="74" ry="22" stroke="#E0792F" stroke-width="0.6" opacity="0.85"></ellipse><ellipse cx="120" cy="180.39999999999998" rx="74" ry="22" stroke="#E0792F" stroke-width="0.6" opacity="0.85"></ellipse><ellipse cx="120" cy="186" rx="74" ry="22" stroke="#E0792F" stroke-width="0.6" opacity="0.85"></ellipse></svg>