<svg xmlns="http://www.w3.org/2000/svg" viewBox="0 0 240 240" fill="none"><ellipse cx="120" cy="120" rx="30" ry="84" transform="rotate(0 120 120)" stroke="#E0792F" stroke-width="0.6" opacity="0.85"></ellipse><ellipse cx="120" cy="120" rx="32.6" ry="81.8" transform="rotate(12 120 120)" stroke="#E0792F" stroke-width="0.6" opacity="0.85"></ellipse><ellipse cx="120" cy="120" rx="35.2" ry="79.6" transform="rotate(24 120 120)" stroke="#E0792F" stroke-width="0.6" opacity="0.85"></ellipse><ellipse cx="120" cy="120" rx="37.8" ry="77.4" transform="rotate(36 120 120)" stroke="#E0792F" stroke-width="0.6" opacity="0.85"></ellipse><ellipse cx="120" cy="120" rx="40.4" ry="75.2" transform="rotate(48 120 120)" stroke="#E0792F" stroke-width="0.6" opacity="0.85"></ellipse><ellipse cx="120" cy="120" rx="43" ry="73" transform="rotate(60 120 120)" stroke="#E0792F" stroke-width="0.6" opacity="0.85"></ellipse><ellipse cx="120" cy="120" rx="45.6" ry="70.8" transform="rotate(72 120 120)" stroke="#E0792F" stroke-width="0.6" opacity="0.85"></ellipse><ellipse cx="120" cy="120" rx="48.2" ry="68.6" transform="rotate(84 120 120)" stroke="#E0792F" stroke-width="0.6" opacity="0.85"></ellipse><ellipse cx="120" cy="120" rx="50.8" ry="66.4" transform="rotate(96 120 120)" stroke="#E0792F" stroke-width="0.6" opacity="0.85"></ellipse><ellipse cx="120" cy="120" rx="53.400000000000006" ry="64.2" transform="rotate(108 120 120)" stroke="#E0792F" stroke-width="0.6" opacity="0.85"></ellipse><ellipse cx="120" cy="120" rx="56" ry="62" transform="rotate(120 120 120)" stroke="#E0792F" stroke-width="0.6" opacity="0.85"></ellipse><ellipse cx="120" cy="120" rx="58.6" ry="59.8" transform="rotate(132 120 120)" stroke="#E0792F" stroke-width="0.6" opacity="0.85"></ellipse><ellipse cx="120" cy="120" rx="61.2" ry="57.599999999999994" transform="rotate(144 120 120)" stroke="#E0792F" stroke-width="0.6" opacity="0.85"></ellipse><ellipse cx="120" cy="120" rx="63.800000000000004" ry="55.4" transform="rotate(156 120 120)" stroke="#E0792F" stroke-width="0.6" opacity="0.85"></ellipse><ellipse cx="120" cy="120" rx="66.4" ry="53.199999999999996" transform="rotate(168 120 120)" stroke="#E0792F" stroke-width="0.6" opacity="0.85"></ellipse><ellipse cx="120" cy="120" rx="69" ry="51" transform="rotate(180 120 120)" stroke="#E0792F" stroke-width="0.6" opacity="0.85"></ellipse><ellipse cx="120" cy="120" rx="71.6" ry="48.8" transform="rotate(192 120 120)" stroke="#E0792F" stroke-width="0.6" opacity="0.85"></ellipse><ellipse cx="120" cy="120" rx="74.2" ry="46.599999999999994" transform="rotate(204 120 120)" stroke="#E0792F" stroke-width="0.6" opacity="0.85"></ellipse><ellipse cx="120" cy="120" rx="76.80000000000001" ry="44.4" transform="rotate(216 120 120)" stroke="#E0792F" stroke-width="0.6" opacity="0.85"></ellipse><ellipse cx="120" cy="120" rx="79.4" ry="42.199999999999996" transform="rotate(228 120 120)" stroke="#E0792F" stroke-width="0.6" opacity="0.85"></ellipse><ellipse cx="120" cy="120" rx="82" ry="40" transform="rotate(240 120 120)" stroke="#E0792F" stroke-width="0.6" opacity="0.85"></ellipse><ellipse cx="120" cy="120" rx="84.6" ry="37.8" transform="rotate(252 120 120)" stroke="#E0792F" stroke-width="0.6" opacity="0.85"></ellipse><ellipse cx="120" cy="120" rx="87.2" ry="35.599999999999994" transform="rotate(264 120 120)" stroke="#E0792F" stroke-width="0.6" opacity="0.85"></ellipse><ellipse cx="120" cy="120" rx="89.80000000000001" ry="33.4" transform="rotate(276 120 120)" stroke="#E0792F" stroke-width="0.6" opacity="0.85"></ellipse><ellipse cx="120" cy="120" rx="92.4" ry="31.199999999999996" transform="rotate(288 120 120)" stroke="#E0792F" stroke-width="0.6" opacity="0.85"></ellipse><ellipse cx="120" cy="120" rx="95" ry="28.999999999999993" transform="rotate(300 120 120)" stroke="#E0792F" stroke-width="0.6" opacity="0.85"></ellipse><ellipse cx="120" cy="120" rx="97.60000000000001" ry="26.799999999999997" transform="rotate(312 120 120)" stroke="#E0792F" stroke-width="0.6" opacity="0.85"></ellipse><ellipse cx="120" cy="120" rx="100.2" ry="24.599999999999994" transform="rotate(324 120 120)" stroke="#E0792F" stroke-width="0.6" opacity="0.85"></ellipse><ellipse cx="120" cy="120" rx="102.8" ry="22.39999999999999" transform="rotate(336 120 120)" stroke="#E0792F" stroke-width="0.6" opacity="0.85"></ellipse><ellipse cx="120" cy="120" rx="105.4" ry="20.199999999999996" transform="rotate(348 120 120)" stroke="#E0792F" stroke-width="0.6" opacity="0.85"></ellipse></svg>