<svg xmlns="http://www.w3.org/2000/svg" viewBox="0 0 240 240" fill="none"><ellipse cx="120" cy="120" rx="92" ry="26" transform="rotate(0 120 120)" stroke="#E0792F" stroke-width="0.6" opacity="0.85"></ellipse><ellipse cx="120" cy="120" rx="92" ry="26" transform="rotate(15 120 120)" stroke="#E0792F" stroke-width="0.6" opacity="0.85"></ellipse><ellipse cx="120" cy="120" rx="92" ry="26" transform="rotate(30 120 120)" stroke="#E0792F" stroke-width="0.6" opacity="0.85"></ellipse><ellipse cx="120" cy="120" rx="92" ry="26" transform="rotate(45 120 120)" stroke="#E0792F" stroke-width="0.6" opacity="0.85"></ellipse><ellipse cx="120" cy="120" rx="92" ry="26" transform="rotate(60 120 120)" stroke="#E0792F" stroke-width="0.6" opacity="0.85"></ellipse><ellipse cx="120" cy="120" rx="92" ry="26" transform="rotate(75 120 120)" stroke="#E0792F" stroke-width="0.6" opacity="0.85"></ellipse><ellipse cx="120" cy="120" rx="92" ry="26" transform="rotate(90 120 120)" stroke="#E0792F" stroke-width="0.6" opacity="0.85"></ellipse><ellipse cx="120" cy="120" rx="92" ry="26" transform="rotate(105 120 120)" stroke="#E0792F" stroke-width="0.6" opacity="0.85"></ellipse><ellipse cx="120" cy="120" rx="92" ry="26" transform="rotate(120 120 120)" stroke="#E0792F" stroke-width="0.6" opacity="0.85"></ellipse><ellipse cx="120" cy="120" rx="92" ry="26" transform="rotate(135 120 120)" stroke="#E0792F" stroke-width="0.6" opacity="0.85"></ellipse><ellipse cx="120" cy="120" rx="92" ry="26" transform="rotate(150 120 120)" stroke="#E0792F" stroke-width="0.6" opacity="0.85"></ellipse><ellipse cx="120" cy="120" rx="92" ry="26" transform="rotate(165 120 120)" stroke="#E0792F" stroke-width="0.6" opacity="0.85"></ellipse><ellipse cx="120" cy="120" rx="92" ry="26" transform="rotate(180 120 120)" stroke="#E0792F" stroke-width="0.6" opacity="0.85"></ellipse><ellipse cx="120" cy="120" rx="92" ry="26" transform="rotate(195 120 120)" stroke="#E0792F" stroke-width="0.6" opacity="0.85"></ellipse><ellipse cx="120" cy="120" rx="92" ry="26" transform="rotate(210 120 120)" stroke="#E0792F" stroke-width="0.6" opacity="0.85"></ellipse><ellipse cx="120" cy="120" rx="92" ry="26" transform="rotate(225 120 120)" stroke="#E0792F" stroke-width="0.6" opacity="0.85"></ellipse><ellipse cx="120" cy="120" rx="92" ry="26" transform="rotate(240 120 120)" stroke="#E0792F" stroke-width="0.6" opacity="0.85"></ellipse><ellipse cx="120" cy="120" rx="92" ry="26" transform="rotate(255 120 120)" stroke="#E0792F" stroke-width="0.6" opacity="0.85"></ellipse><ellipse cx="120" cy="120" rx="92" ry="26" transform="rotate(270 120 120)" stroke="#E0792F" stroke-width="0.6" opacity="0.85"></ellipse><ellipse cx="120" cy="120" rx="92" ry="26" transform="rotate(285 120 120)" stroke="#E0792F" stroke-width="0.6" opacity="0.85"></ellipse><ellipse cx="120" cy="120" rx="92" ry="26" transform="rotate(300 120 120)" stroke="#E0792F" stroke-width="0.6" opacity="0.85"></ellipse><ellipse cx="120" cy="120" rx="92" ry="26" transform="rotate(315 120 120)" stroke="#E0792F" stroke-width="0.6" opacity="0.85"></ellipse><ellipse cx="120" cy="120" rx="92" ry="26" transform="rotate(330 120 120)" stroke="#E0792F" stroke-width="0.6" opacity="0.85"></ellipse><ellipse cx="120" cy="120" rx="92" ry="26" transform="rotate(345 120 120)" stroke="#E0792F" stroke-width="0.6" opacity="0.85"></ellipse></svg>