<svg xmlns="http://www.w3.org/2000/svg" viewBox="0 0 1600 900" fill="none"><path d="M -100 900 C 300 500, 700 300, 1700 120" stroke="#0a0b0d09" stroke-width="1.4" fill="none"></path><path d="M -30 900 C 300 482, 700 322, 1700 112" stroke="#0a0b0d07" stroke-width="1.4" fill="none"></path><path d="M 40 900 C 300 464, 700 344, 1700 104" stroke="#0a0b0d05" stroke-width="1.4" fill="none"></path><path d="M 110 900 C 300 446, 700 366, 1700 96" stroke="#0a0b0d09" stroke-width="1.4" fill="none"></path><path d="M 180 900 C 300 428, 700 388, 1700 88" stroke="#0a0b0d07" stroke-width="1.4" fill="none"></path><path d="M 250 900 C 300 410, 700 410, 1700 80" stroke="#0a0b0d05" stroke-width="1.4" fill="none"></path><path d="M 320 900 C 300 392, 700 432, 1700 72" stroke="#0a0b0d09" stroke-width="1.4" fill="none"></path><path d="M 390 900 C 300 374, 700 454, 1700 64" stroke="#0a0b0d07" stroke-width="1.4" fill="none"></path><path d="M 460 900 C 300 356, 700 476, 1700 56" stroke="#0a0b0d05" stroke-width="1.4" fill="none"></path><path d="M 530 900 C 300 338, 700 498, 1700 48" stroke="#0a0b0d09" stroke-width="1.4" fill="none"></path><path d="M 600 900 C 300 320, 700 520, 1700 40" stroke="#0a0b0d07" stroke-width="1.4" fill="none"></path><path d="M 670 900 C 300 302, 700 542, 1700 32" stroke="#0a0b0d05" stroke-width="1.4" fill="none"></path><path d="M 740 900 C 300 284, 700 564, 1700 24" stroke="#0a0b0d09" stroke-width="1.4" fill="none"></path><path d="M 810 900 C 300 266, 700 586, 1700 16" stroke="#0a0b0d07" stroke-width="1.4" fill="none"></path><path d="M -200 0 C 400 260, 1000 180, 1800 640" stroke="#0a0b0d06" stroke-width="1.2" fill="none"></path><path d="M -80 0 C 400 290, 1000 200, 1800 630" stroke="#0a0b0d06" stroke-width="1.2" fill="none"></path><path d="M 40 0 C 400 320, 1000 220, 1800 620" stroke="#0a0b0d06" stroke-width="1.2" fill="none"></path><path d="M 160 0 C 400 350, 1000 240, 1800 610" stroke="#0a0b0d06" stroke-width="1.2" fill="none"></path><path d="M 280 0 C 400 380, 1000 260, 1800 600" stroke="#0a0b0d06" stroke-width="1.2" fill="none"></path><path d="M 400 0 C 400 410, 1000 280, 1800 590" stroke="#0a0b0d06" stroke-width="1.2" fill="none"></path><path d="M 520 0 C 400 440, 1000 300, 1800 580" stroke="#0a0b0d06" stroke-width="1.2" fill="none"></path><path d="M 640 0 C 400 470, 1000 320, 1800 570" stroke="#0a0b0d06" stroke-width="1.2" fill="none"></path><path d="M 760 0 C 400 500, 1000 340, 1800 560" stroke="#0a0b0d06" stroke-width="1.2" fill="none"></path><path d="M 880 0 C 400 530, 1000 360, 1800 550" stroke="#0a0b0d06" stroke-width="1.2" fill="none"></path></svg>